# xmcd CD database file
#
# Track frame offsets:
#	150
#	1295
#	19257
#	35570
#	57892
#	77892
#	100802
#	120960
#	132232
#	142492
#	174817
#	193267
#	211780
#	235865
#	251420
#	272382
#	296070
#	330440
#
# Disc length: 4795 seconds
#
# Revision: 0
# Processed by: cddbd v1.5PL3 Copyright (c) Steve Scherf et al.
# Submitted via: CDex 1.40Release
#
DISCID=f812b912
DTITLE=ECD - MASTER
DYEAR=2003
DGENRE=ヒップ ホップ (一般)
TTITLE0=イントロ
TTITLE1=POWER OF THE UNDERGROUND(インスト)
TTITLE2=ECDの東京っていい街だなぁ
TTITLE3=いっそ感電死
TTITLE4=マス対コア featuring TWIGY, YOU THE ROCK(ILLICIT TSUBOI REMIX)
TTITLE5=SUMMER MADNESS
TTITLE6=ECDのロンリー・ガール featuring K DUB SHINE
TTITLE7=俺達に明日は無い(RAP VERSION Pt1)
TTITLE8=俺達に明日は無い(RAP VERSION Pt2 クボタタケシ UNRELEASED REMIX)
TTITLE9=RUDE BOY SUTRA featuring HOWLING UDON
TTITLE10=DIRECT DRIVE dee jay punk-roc remix
TTITLE11=大脱走(VIDEO EDIT)
TTITLE12=君は薔薇より美しい(featuring 有近真澄 from TV JESUS)
TTITLE13=イ百景 featuring モユニジュモ
TTITLE14=S.S.S. 対セントラル・セッション
TTITLE15=過去形のパラダイス
TTITLE16=S.S.S. オリジナル・セッション
TTITLE17=ＤＡＴＡ
EXTD=YEAR: 2003
EXTT0=
EXTT1=
EXTT2=
EXTT3=
EXTT4=
EXTT5=
EXTT6=
EXTT7=
EXTT8=
EXTT9=
EXTT10=
EXTT11=
EXTT12=
EXTT13=
EXTT14=
EXTT15=
EXTT16=
EXTT17=
PLAYORDER=
